<?xml version="1.0" encoding="UTF-8" standalone="no"?>
<svg width="227px" height="158px" viewBox="0 0 227 158" version="1.1" xmlns="http://www.w3.org/2000/svg" xmlns:xlink="http://www.w3.org/1999/xlink" xmlns:sketch="http://www.bohemiancoding.com/sketch/ns">
    <!-- Generator: Sketch 3.3.3 (12081) - http://www.bohemiancoding.com/sketch -->
    <title>Group</title>
    <desc>Created with Sketch.</desc>
    <defs></defs>
    <g id="Page-1" stroke="none" stroke-width="1" fill="none" fill-rule="evenodd" sketch:type="MSPage">
        <g id="donation1" sketch:type="MSLayerGroup" transform="translate(57.000000, 3.000000)" fill="#FF5300">
            <g id="Group" sketch:type="MSShapeGroup">
                <path d="M53.3573023,71.1490528 C51.4086822,70.361844 50.5939845,69.879406 50.5939845,68.935656 C50.5939845,67.2535298 52.0989871,66.8081491 52.8957003,66.8081491 C54.4234832,66.8081491 54.7370129,67.5243601 54.7370129,68.5993693 L54.7370129,68.6831812 C54.7370129,69.4561904 55.2795452,70.0833945 55.9476693,70.0833945 L56.2597003,70.0833945 C56.928124,70.0833945 57.4703566,69.4575757 57.4709561,68.6845665 L57.4727545,66.2567913 C57.4727545,65.8643991 57.3303773,65.4896697 57.0806925,65.2247271 C56.3208475,64.4191628 55.3358966,63.9720505 54.0823773,63.8657271 L54.0823773,62.2733005 C54.0823773,61.5002913 53.5395452,60.8737798 52.8717209,60.8737798 L52.5797726,60.8737798 C51.9116486,60.8737798 51.3688165,61.5002913 51.3688165,62.2733005 L51.3688165,63.9765528 C49.5406925,64.5597729 47.808186,66.4867546 47.808186,69.047867 C47.808186,72.1025 50.1392765,73.0244312 52.1964031,73.8376147 C54.3290646,74.6819679 55.2210956,75.2302087 55.2210956,76.4378624 C55.2210956,78.1837133 53.6522481,78.6495275 52.725447,78.6495275 C51.7887545,78.6495275 50.6299535,78.3406009 50.3167235,77.8318417 C50.1797416,77.6053417 50.0874212,77.1648096 50.0424599,76.5209817 C49.9909044,75.7943807 49.4660568,75.2343647 48.8354005,75.2343647 L48.5893127,75.2343647 C48.2658915,75.2343647 47.9568579,75.3832867 47.7287545,75.6492683 C47.5015504,75.9138647 47.3750594,76.2723165 47.3780568,76.6456606 L47.3969406,79.3982936 C47.4008372,80.0223807 47.7614264,80.5657729 48.2811783,80.7344358 C48.3336331,80.7517523 48.4034729,80.7701078 48.4742119,80.7877706 L48.5317623,80.8019702 C49.6117313,81.1503784 50.5885891,81.4520321 51.369416,81.5663211 L51.369416,83.883617 C51.369416,84.6559335 51.9122481,85.282445 52.5803721,85.282445 L52.8723204,85.282445 C53.5404444,85.282445 54.0829767,84.6559335 54.0829767,83.883617 L54.0829767,81.5154106 C56.0963411,81.0263922 58.0077933,79.0983716 58.0077933,76.3814106 C58.0068941,73.0296261 55.4288165,71.987172 53.3573023,71.1490528 L53.3573023,71.1490528 Z" id="Shape"></path>
                <path d="M115.920269,25.9463716 L115.920269,0 C109.566346,3.21810092 97.6132506,7.82186927 92.0503463,8.18759404 C86.4871421,8.55331881 60.3451783,3.81032569 53.2628837,5.85852294 C47.5629974,7.50705505 16.2660775,34.7196101 6.93062532,42.2238945 C-7.97342636,54.2044977 5.21610336,56.1248991 11.4741085,53.3535642 C17.7710801,50.5649128 38.0647855,37.4670482 38.0647855,37.4670482 C38.0006408,40.1206307 38.3477416,43.8769289 40.4018708,47.9328028 C40.4018708,47.9328028 42.7248682,51.6953349 45.5085685,55.3785573 C39.5017468,58.5429771 35.3155556,65.5436972 35.3155556,73.655445 C35.3155556,80.5460321 38.3363514,86.6359037 42.9277933,90.2536697 L12.8924858,90.2536697 C11.2292196,90.2536697 9.88068217,91.8114633 9.88068217,93.73325 L9.88068217,147.189328 C9.88068217,149.1125 11.2292196,150.670294 12.8924858,150.670294 L92.4924651,150.670294 C94.1554315,150.670294 95.503969,149.1125 95.503969,147.189328 L95.503969,93.73325 C95.503969,91.8114633 94.1554315,90.2536697 92.4924651,90.2536697 L62.4574574,90.2536697 C67.0482997,86.63625 70.0693953,80.5463784 70.0693953,73.655445 C70.0693953,68.6194564 68.4525891,64.0143028 65.7920827,60.4862362 C65.7603101,60.4554128 65.7321344,60.4218188 65.7054574,60.3878784 C70.0463152,57.8880665 74.6089819,53.4089771 85.6559587,48.1883945 C104.261819,39.3954151 110.563587,29.409328 115.920269,25.9463716 L115.920269,25.9463716 Z M64.6608579,46.3029725 C61.1739638,49.1470367 58.7943152,51.9249518 57.4062119,54.3343716 C56.6235866,54.0791261 55.8190801,53.8858739 54.9965891,53.758078 C54.277509,51.0688234 53.0422739,47.531406 51.1601964,42.847289 C51.1601964,42.847289 50.2963411,40.4995161 50.5810956,37.6921628 C51.2914832,34.5551032 53.7433695,31.1908509 60.6715969,30.1577477 C72.3375401,28.4184771 73.9930129,35.2328716 68.7211576,42.3277936 C67.5962274,43.674672 66.2374987,45.0170482 64.6608579,46.3029725 L64.6608579,46.3029725 Z M66.3028424,98.5462018 C67.9577158,98.5462018 69.3044548,100.101225 69.3044548,102.014007 C69.3044548,103.92575 67.9583152,105.481466 66.3028424,105.481466 L39.0821085,105.481466 C37.4272351,105.481466 36.0810956,103.92575 36.0810956,102.014007 C36.0810956,100.101917 37.4272351,98.5462018 39.0821085,98.5462018 L66.3028424,98.5462018 L66.3028424,98.5462018 Z M52.6924755,88.4444404 C45.6344599,88.4444404 39.8920103,81.8104839 39.8920103,73.6550986 C39.8920103,65.5000596 45.6344599,58.8657569 52.6924755,58.8657569 C53.7337778,58.8657569 54.7448062,59.0132936 55.7141705,59.2858555 C55.7126718,61.6298188 57.2914109,62.967 59.8949664,62.6698486 C60.2948217,62.6244794 60.6826873,62.5604083 61.0618605,62.4790206 C63.772124,65.1935573 65.4920413,69.1954037 65.4920413,73.6550986 C65.4923411,81.8104839 59.750491,88.4444404 52.6924755,88.4444404 L52.6924755,88.4444404 Z" id="Shape"></path>
            </g>
        </g>
    </g>
</svg>